<svg xmlns="http://www.w3.org/2000/svg" viewBox="0 0 300 300">
  <defs>
    <radialGradient id="bg" cx="50%" cy="50%" r="50%">
      <stop offset="0%" stop-color="#FFF0F5"/>
      <stop offset="100%" stop-color="#FFB6C8" stop-opacity="0.3"/>
    </radialGradient>
    <linearGradient id="bottle" x1="0" y1="0" x2="1" y2="1">
      <stop offset="0%" stop-color="#FDDCE8"/>
      <stop offset="100%" stop-color="#E57DA5"/>
    </linearGradient>
    <linearGradient id="cap" x1="0" y1="0" x2="0" y2="1">
      <stop offset="0%" stop-color="#C94E80"/>
      <stop offset="100%" stop-color="#E57DA5"/>
    </linearGradient>
  </defs>
  <circle cx="150" cy="150" r="140" fill="url(#bg)"/>
  <!-- Bottle body -->
  <rect x="112" y="95" width="76" height="135" rx="12" fill="url(#bottle)" stroke="#C94E80" stroke-width="2"/>
  <!-- Bottle neck -->
  <rect x="132" y="72" width="36" height="28" rx="4" fill="#FDDCE8" stroke="#C94E80" stroke-width="2"/>
  <!-- Cap -->
  <rect x="127" y="62" width="46" height="16" rx="5" fill="url(#cap)"/>
  <!-- Label -->
  <rect x="120" y="128" width="60" height="55" rx="6" fill="white" fill-opacity="0.85"/>
  <text x="150" y="155" text-anchor="middle" font-family="Georgia, serif" font-size="20" font-weight="bold" fill="#4A3040">AA3</text>
  <text x="150" y="174" text-anchor="middle" font-family="Georgia, serif" font-size="8" fill="#C94E80">Amino Acids</text>
  <!-- Ribbon bow -->
  <ellipse cx="140" cy="66" rx="17" ry="9" fill="#FF85A2" opacity="0.85"/>
  <ellipse cx="160" cy="66" rx="17" ry="9" fill="#FF85A2" opacity="0.85"/>
  <circle cx="150" cy="66" r="5" fill="#C94E80"/>
  <path d="M142 71 L133 86 L140 82" fill="#FF85A2" opacity="0.7"/>
  <path d="M158 71 L167 86 L160 82" fill="#FF85A2" opacity="0.7"/>
  <!-- Hearts -->
  <g fill="#E57DA5" opacity="0.5">
    <path d="M60 80 C60 75,67 75,67 80 C67 85,60 90,60 90 C60 90,53 85,53 80 C53 75,60 75,60 80Z" transform="scale(0.58) translate(58,46)"/>
    <path d="M60 80 C60 75,67 75,67 80 C67 85,60 90,60 90 C60 90,53 85,53 80 C53 75,60 75,60 80Z" transform="scale(0.5) translate(422,84)"/>
    <path d="M60 80 C60 75,67 75,67 80 C67 85,60 90,60 90 C60 90,53 85,53 80 C53 75,60 75,60 80Z" transform="scale(0.44) translate(106,436)"/>
    <path d="M60 80 C60 75,67 75,67 80 C67 85,60 90,60 90 C60 90,53 85,53 80 C53 75,60 75,60 80Z" transform="scale(0.4) translate(478,442)"/>
  </g>
  <circle cx="80" cy="114" r="2" fill="#FFB6C8"/>
  <circle cx="224" cy="102" r="2.5" fill="#E8739B" opacity="0.6"/>
  <circle cx="88" cy="216" r="1.5" fill="#FF85A2" opacity="0.5"/>
  <circle cx="216" cy="220" r="2" fill="#FFB6C8" opacity="0.7"/>
  <text x="150" y="260" text-anchor="middle" font-family="Georgia, serif" font-size="14" fill="#4A3040">AA3</text>
</svg>