<svg xmlns="http://www.w3.org/2000/svg" viewBox="0 0 300 300">
  <defs>
    <radialGradient id="bg" cx="50%" cy="50%" r="50%">
      <stop offset="0%" stop-color="#FFF0F5"/>
      <stop offset="100%" stop-color="#FFB6C8"/>
    </radialGradient>
  </defs>
  <circle cx="150" cy="150" r="140" fill="url(#bg)" stroke="#E8739B" stroke-width="2"/>
  <!-- Ribbon Bow -->
  <g transform="translate(150,38)">
    <ellipse cx="-18" cy="0" rx="18" ry="10" fill="#FF85A2" opacity="0.9"/>
    <ellipse cx="18" cy="0" rx="18" ry="10" fill="#FF85A2" opacity="0.9"/>
    <circle cx="0" cy="0" r="5" fill="#D4568A"/>
    <path d="M-8,10 Q0,28 8,10" fill="#FF85A2" opacity="0.8"/>
    <path d="M-6,10 Q0,24 6,10" fill="#D4568A" opacity="0.5"/>
  </g>
  <!-- Larger Vial for 300u -->
  <g transform="translate(150,155)">
    <rect x="-26" y="-48" width="52" height="80" rx="8" fill="white" stroke="#E8739B" stroke-width="2"/>
    <rect x="-18" y="-63" width="36" height="18" rx="4" fill="#E8739B"/>
    <rect x="-14" y="-67" width="28" height="6" rx="3" fill="#D4568A"/>
    <rect x="-22" y="-32" width="44" height="48" rx="4" fill="#FFF0F5" stroke="#FFB6C8" stroke-width="1"/>
    <line x1="-16" y1="-20" x2="16" y2="-20" stroke="#FFB6C8" stroke-width="1"/>
    <line x1="-16" y1="-8" x2="16" y2="-8" stroke="#FFB6C8" stroke-width="1"/>
    <line x1="-16" y1="4" x2="10" y2="4" stroke="#FFB6C8" stroke-width="1"/>
    <rect x="-22" y="8" width="44" height="20" rx="3" fill="#FFB6C8" opacity="0.5"/>
  </g>
  <!-- Floating Hearts -->
  <g fill="#E8739B" opacity="0.6">
    <path d="M60,70 C60,64 52,58 52,64 C52,58 44,64 44,70 C44,78 52,84 52,84 C52,84 60,78 60,70Z" transform="scale(0.5) translate(55,65)"/>
    <path d="M60,70 C60,64 52,58 52,64 C52,58 44,64 44,70 C44,78 52,84 52,84 C52,84 60,78 60,70Z" transform="scale(0.45) translate(490,130)"/>
    <path d="M60,70 C60,64 52,58 52,64 C52,58 44,64 44,70 C44,78 52,84 52,84 C52,84 60,78 60,70Z" transform="scale(0.4) translate(130,430)"/>
  </g>
  <text x="150" y="252" text-anchor="middle" font-family="Georgia, serif" font-size="22" font-weight="bold" fill="#4A3040">Botulax</text>
  <text x="150" y="274" text-anchor="middle" font-family="Georgia, serif" font-size="16" fill="#D4568A">300u</text>
</svg>