<svg xmlns="http://www.w3.org/2000/svg" viewBox="0 0 300 300">
  <defs>
    <radialGradient id="bg" cx="50%" cy="50%" r="50%">
      <stop offset="0%" stop-color="#FFF0F5"/>
      <stop offset="100%" stop-color="#FFB6C8" stop-opacity="0.3"/>
    </radialGradient>
    <linearGradient id="vial" x1="0" y1="0" x2="1" y2="1">
      <stop offset="0%" stop-color="#F8C8DD"/>
      <stop offset="100%" stop-color="#E8739B"/>
    </linearGradient>
    <linearGradient id="cap" x1="0" y1="0" x2="0" y2="1">
      <stop offset="0%" stop-color="#D4568A"/>
      <stop offset="100%" stop-color="#E8739B"/>
    </linearGradient>
  </defs>
  <circle cx="150" cy="150" r="140" fill="url(#bg)"/>
  <!-- Single vial (smaller, centered) -->
  <rect x="115" y="100" width="70" height="120" rx="10" fill="url(#vial)" stroke="#D4568A" stroke-width="2"/>
  <rect x="133" y="78" width="34" height="27" rx="4" fill="#F8C8DD" stroke="#D4568A" stroke-width="2"/>
  <rect x="128" y="68" width="44" height="16" rx="5" fill="url(#cap)"/>
  <!-- Label -->
  <rect x="122" y="128" width="56" height="50" rx="6" fill="white" fill-opacity="0.85"/>
  <text x="150" y="152" text-anchor="middle" font-family="Georgia, serif" font-size="16" font-weight="bold" fill="#4A3040">GTT</text>
  <text x="150" y="170" text-anchor="middle" font-family="Georgia, serif" font-size="8" fill="#D4568A">Individual</text>
  <!-- Ribbon bow -->
  <ellipse cx="140" cy="72" rx="16" ry="8" fill="#FF85A2" opacity="0.85"/>
  <ellipse cx="160" cy="72" rx="16" ry="8" fill="#FF85A2" opacity="0.85"/>
  <circle cx="150" cy="72" r="4" fill="#D4568A"/>
  <path d="M143 76 L135 90 L142 86" fill="#FF85A2" opacity="0.7"/>
  <path d="M157 76 L165 90 L158 86" fill="#FF85A2" opacity="0.7"/>
  <!-- Hearts -->
  <g fill="#E8739B" opacity="0.5">
    <path d="M60 80 C60 75,67 75,67 80 C67 85,60 90,60 90 C60 90,53 85,53 80 C53 75,60 75,60 80Z" transform="scale(0.55) translate(64,50)"/>
    <path d="M60 80 C60 75,67 75,67 80 C67 85,60 90,60 90 C60 90,53 85,53 80 C53 75,60 75,60 80Z" transform="scale(0.48) translate(426,86)"/>
    <path d="M60 80 C60 75,67 75,67 80 C67 85,60 90,60 90 C60 90,53 85,53 80 C53 75,60 75,60 80Z" transform="scale(0.42) translate(112,440)"/>
    <path d="M60 80 C60 75,67 75,67 80 C67 85,60 90,60 90 C60 90,53 85,53 80 C53 75,60 75,60 80Z" transform="scale(0.4) translate(484,444)"/>
  </g>
  <circle cx="78" cy="118" r="2" fill="#FFB6C8"/>
  <circle cx="226" cy="104" r="2.5" fill="#E8739B" opacity="0.6"/>
  <circle cx="86" cy="212" r="1.5" fill="#FF85A2" opacity="0.5"/>
  <circle cx="218" cy="218" r="2" fill="#FFB6C8" opacity="0.7"/>
  <text x="150" y="260" text-anchor="middle" font-family="Georgia, serif" font-size="14" fill="#4A3040">GTT Individual</text>
</svg>