<svg xmlns="http://www.w3.org/2000/svg" viewBox="0 0 300 300">
  <defs>
    <radialGradient id="bg" cx="50%" cy="50%" r="50%">
      <stop offset="0%" stop-color="#FFF0F5"/>
      <stop offset="100%" stop-color="#FFB6C8" stop-opacity="0.3"/>
    </radialGradient>
    <linearGradient id="vial" x1="0" y1="0" x2="1" y2="1">
      <stop offset="0%" stop-color="#F8C4D8"/>
      <stop offset="100%" stop-color="#E06090"/>
    </linearGradient>
    <linearGradient id="cap" x1="0" y1="0" x2="0" y2="1">
      <stop offset="0%" stop-color="#C94E80"/>
      <stop offset="100%" stop-color="#E06090"/>
    </linearGradient>
  </defs>
  <circle cx="150" cy="150" r="140" fill="url(#bg)"/>
  <rect x="110" y="100" width="80" height="130" rx="12" fill="url(#vial)" stroke="#C94E80" stroke-width="2"/>
  <rect x="130" y="75" width="40" height="30" rx="4" fill="#F8C4D8" stroke="#C94E80" stroke-width="2"/>
  <rect x="125" y="65" width="50" height="18" rx="6" fill="url(#cap)"/>
  <rect x="118" y="128" width="64" height="55" rx="6" fill="white" fill-opacity="0.85"/>
  <text x="150" y="150" text-anchor="middle" font-family="Georgia, serif" font-size="15" font-weight="bold" fill="#4A3040">SS31</text>
  <text x="150" y="170" text-anchor="middle" font-family="Georgia, serif" font-size="11" fill="#C94E80">10mg</text>
  <ellipse cx="135" cy="68" rx="18" ry="10" fill="#FF85A2" opacity="0.85"/>
  <ellipse cx="165" cy="68" rx="18" ry="10" fill="#FF85A2" opacity="0.85"/>
  <circle cx="150" cy="68" r="5" fill="#C94E80"/>
  <path d="M140 73 L130 90 L138 85" fill="#FF85A2" opacity="0.7"/>
  <path d="M160 73 L170 90 L162 85" fill="#FF85A2" opacity="0.7"/>
  <g fill="#E06090" opacity="0.5">
    <path d="M60 80 C60 75,67 75,67 80 C67 85,60 90,60 90 C60 90,53 85,53 80 C53 75,60 75,60 80Z" transform="scale(0.55) translate(60,50)"/>
    <path d="M60 80 C60 75,67 75,67 80 C67 85,60 90,60 90 C60 90,53 85,53 80 C53 75,60 75,60 80Z" transform="scale(0.5) translate(425,80)"/>
    <path d="M60 80 C60 75,67 75,67 80 C67 85,60 90,60 90 C60 90,53 85,53 80 C53 75,60 75,60 80Z" transform="scale(0.45) translate(105,425)"/>
    <path d="M60 80 C60 75,67 75,67 80 C67 85,60 90,60 90 C60 90,53 85,53 80 C53 75,60 75,60 80Z" transform="scale(0.4) translate(475,445)"/>
  </g>
  <circle cx="78" cy="118" r="2" fill="#FFB6C8"/>
  <circle cx="228" cy="102" r="2.5" fill="#E8739B" opacity="0.6"/>
  <circle cx="88" cy="215" r="1.5" fill="#FF85A2" opacity="0.5"/>
  <circle cx="218" cy="222" r="2" fill="#FFB6C8" opacity="0.7"/>
  <text x="150" y="260" text-anchor="middle" font-family="Georgia, serif" font-size="14" fill="#4A3040">SS31 10mg</text>
</svg>